<?xml version="1.0" encoding="UTF-8"?>
<!-- Generator: Adobe Illustrator 16.0.0, SVG Export Plug-In . SVG Version: 6.00 Build 0)  -->
<!DOCTYPE svg PUBLIC "-//W3C//DTD SVG 1.1//EN" "http://www.w3.org/Graphics/SVG/1.1/DTD/svg11.dtd">
<svg version="1.1" id="Layer_1" xmlns="http://www.w3.org/2000/svg" xmlns:xlink="http://www.w3.org/1999/xlink" x="0px" y="0px" width="256px" height="256px" viewBox="0 0 256 256" enable-background="new 0 0 256 256" xml:space="preserve">
<g>
	<g>
		<circle fill="#9CA2A9" cx="128" cy="128" r="128"/>
	</g>
	<g>
		<path fill="#EBECEE" d="M247.6,82.4c10.7,28.1,10.9,57.6,2.4,84.2c-11.4,35.9-83.3,30.3-83.3,30.3L38.3,166.3    c0,0-40.8-50.7-32.2-77.4C17.6,53.2,44.7,22.8,82.4,8.4C148.5-16.7,222.4,16.4,247.6,82.4z"/>
	</g>
	<g>
		<g>
			<g>
				<polygon fill="#F2F2F2" points="38,132.5 18.3,86.9 46.3,44 95.9,43.8 110.4,81.8 79,129.9     "/>
			</g>
			<g>
				<polygon fill="#DDDFE2" points="243.5,147.9 203.5,177.3 168.7,154.2 165.8,96.8 198.2,71.5 240.9,96.7     "/>
			</g>
			<g>
				<polygon fill="#FAFAFA" points="165.8,96.8 110.4,81.8 95.9,43.8 133.2,11 182.6,24.3 198.2,71.5     "/>
			</g>
			<g>
				<polygon fill="#C7CACE" points="104.5,215 55,219.7 22.9,179.8 38,132.5 79,129.9 115,174.6     "/>
			</g>
			<g>
				<path fill="#B1B6BC" d="M203.5,177.3l-10.8,48.4L144.8,244l-40.3-29l10.6-40.4l53.7-20.5L203.5,177.3z"/>
			</g>
		</g>
		<g>
			<path fill="#3D3F43" d="M18.3,86.9L3.3,99c-5.3,22.6-4.5,46.8,3.5,70.2l16,10.6L38,132.5L18.3,86.9z M133.2,11L117,0.5     c-11.6,1-23.2,3.6-34.5,7.9c-11.4,4.3-21.8,10.1-31.1,17.1L46.3,44l49.6-0.3L133.2,11z M168.7,154.2l-2.9-57.4l-55.5-15L79,129.9     l36,44.7L168.7,154.2z M201.8,23.4l-19.2,0.9l15.6,47.1l42.7,25.3l5-18.6C236.3,55.4,220.7,36.8,201.8,23.4z M192.6,225.7l19.2-1     c18.2-15.8,31.4-36.3,38.4-58.8l-6.8-18l-40,29.4L192.6,225.7z M55,219.7l6.9,17.9c20.2,12.2,43.7,18.7,67.8,18.4l15-12l-40.3-29     L55,219.7z"/>
		</g>
	</g>
</g>
</svg>